<?xml version="1.0" encoding="UTF-8" standalone="no"?>
<!-- Created with Inkscape (http://www.inkscape.org/) -->

<svg
   xmlns:dc="http://purl.org/dc/elements/1.1/"
   xmlns:cc="http://creativecommons.org/ns#"
   xmlns:rdf="http://www.w3.org/1999/02/22-rdf-syntax-ns#"
   xmlns:svg="http://www.w3.org/2000/svg"
   xmlns="http://www.w3.org/2000/svg"
   xmlns:xlink="http://www.w3.org/1999/xlink"
   xmlns:sodipodi="http://sodipodi.sourceforge.net/DTD/sodipodi-0.dtd"
   xmlns:inkscape="http://www.inkscape.org/namespaces/inkscape"
   width="744.09448819"
   height="1052.3622047"
   id="svg2"
   version="1.1"
   inkscape:version="0.48.4 r9939"
   sodipodi:docname="logo4.svg">
  <defs
     id="defs4">
    <linearGradient
       xlink:href="#linearGradient4568"
       id="linearGradient3813"
       x1="0.493841"
       y1="-0.010599"
       x2="0.493841"
       y2="1.000075" />
    <linearGradient
       xlink:href="#linearGradient4568"
       id="linearGradient3809"
       x1="0.507476"
       y1="0.994783"
       x2="0.507476"
       y2="-1.003578" />
    <linearGradient
       xlink:href="#linearGradient4568"
       id="linearGradient3806"
       x1="0.501625"
       y1="0.007303"
       x2="0.501625"
       y2="1.000002" />
    <linearGradient
       xlink:href="#linearGradient4568"
       id="linearGradient3803"
       gradientUnits="userSpaceOnUse"
       gradientTransform="matrix(1.3338949,0,0,1.3338949,125.21415,189.43825)"
       x1="182.29773"
       y1="129.76848"
       x2="182.29773"
       y2="263.96893" />
    <linearGradient
       xlink:href="#linearGradient4568"
       id="linearGradient3801"
       gradientUnits="userSpaceOnUse"
       gradientTransform="translate(0,-20)"
       x1="365.01328"
       y1="664.38275"
       x2="365.01328"
       y2="277.42972" />
    <linearGradient
       xlink:href="#linearGradient4568"
       id="linearGradient3799"
       gradientUnits="userSpaceOnUse"
       gradientTransform="matrix(0.6445874,0,0,-0.6297777,1002.1094,304.33206)"
       x1="-987.5874"
       y1="74.615929"
       x2="-987.5874"
       y2="-236.1319" />
    <linearGradient
       xlink:href="#linearGradient4568"
       id="linearGradient3785"
       x1="365.01328"
       y1="664.38275"
       x2="365.01328"
       y2="277.42972"
       gradientUnits="userSpaceOnUse"
       gradientTransform="translate(0,-20)" />
    <linearGradient
       xlink:href="#linearGradient4568"
       id="linearGradient3761"
       gradientUnits="userSpaceOnUse"
       gradientTransform="matrix(0.6445874,0,0,-0.6297777,1002.1094,304.33206)"
       x1="-987.5874"
       y1="74.615929"
       x2="-987.5874"
       y2="-236.1319" />
    <linearGradient
       xlink:href="#linearGradient4568"
       id="linearGradient3538"
       gradientUnits="userSpaceOnUse"
       x1="182.29773"
       y1="129.76848"
       x2="182.29773"
       y2="263.96893"
       gradientTransform="matrix(1.3338949,0,0,1.3338949,125.21415,189.43825)" />
    <linearGradient
       xlink:href="#linearGradient3510"
       id="linearGradient3516"
       x1="114.49531"
       y1="196.38329"
       x2="249.67178"
       y2="196.38329"
       gradientUnits="userSpaceOnUse" />
    <linearGradient
       xlink:href="#linearGradient4568"
       id="linearGradient4902"
       x1="371.2373"
       y1="663.96436"
       x2="371.2373"
       y2="277.38016"
       gradientUnits="userSpaceOnUse" />
    <linearGradient
       xlink:href="#linearGradient4568"
       id="linearGradient4886"
       gradientUnits="userSpaceOnUse"
       gradientTransform="matrix(0.6445874,0,0,-0.6297777,946.39511,366.67006)"
       x1="-982.85712"
       y1="-544.7807"
       x2="-982.85712"
       y2="71.440598" />
    <linearGradient
       xlink:href="#linearGradient4568"
       id="linearGradient4873"
       gradientUnits="userSpaceOnUse"
       gradientTransform="matrix(0.6445874,0,0,-0.6297777,1002.1094,322.33206)"
       x1="-987.5874"
       y1="74.615929"
       x2="-987.5874"
       y2="-236.1319" />
    <linearGradient
       xlink:href="#linearGradient4568"
       id="linearGradient4852"
       gradientUnits="userSpaceOnUse"
       gradientTransform="matrix(0.6445874,0,0,-0.6297777,828.01495,44.991419)"
       x1="-982.85712"
       y1="-544.7807"
       x2="-982.85712"
       y2="71.440598" />
    <linearGradient
       xlink:href="#linearGradient4777"
       id="linearGradient4842"
       gradientUnits="userSpaceOnUse"
       gradientTransform="matrix(0.6445874,0,0,-0.6297777,1001.6842,322.38324)"
       x1="-979.84796"
       y1="66.4533"
       x2="-979.84796"
       y2="-236.11523" />
    <linearGradient
       xlink:href="#linearGradient4568"
       id="linearGradient4827"
       gradientUnits="userSpaceOnUse"
       gradientTransform="matrix(0.6445874,0,0,0.6297777,1002.1094,620.40148)"
       x1="-982.85712"
       y1="-544.7807"
       x2="-982.85712"
       y2="71.440598" />
    <linearGradient
       xlink:href="#linearGradient4777"
       id="linearGradient4822"
       gradientUnits="userSpaceOnUse"
       gradientTransform="matrix(0.6445874,0,0,-0.6297777,1002.1094,322.38324)"
       x1="-979.84796"
       y1="66.4533"
       x2="-979.84796"
       y2="-236.11523" />
    <linearGradient
       xlink:href="#linearGradient4777"
       id="linearGradient4819"
       gradientUnits="userSpaceOnUse"
       gradientTransform="translate(832.3657,771.75654)"
       x1="-979.84796"
       y1="66.4533"
       x2="-979.84796"
       y2="-236.11523" />
    <linearGradient
       xlink:href="#linearGradient4568"
       id="linearGradient4817"
       gradientUnits="userSpaceOnUse"
       gradientTransform="translate(832.3657,771.75654)"
       x1="-982.85712"
       y1="-544.7807"
       x2="-982.85712"
       y2="71.440598" />
    <linearGradient
       xlink:href="#linearGradient4568"
       id="linearGradient4797"
       x1="-982.85712"
       y1="-544.7807"
       x2="-982.85712"
       y2="71.440598"
       gradientUnits="userSpaceOnUse"
       gradientTransform="translate(832.3657,771.75654)" />
    <linearGradient
       xlink:href="#linearGradient4777"
       id="linearGradient4769"
       x1="-979.84796"
       y1="66.4533"
       x2="-979.84796"
       y2="-236.11523"
       gradientUnits="userSpaceOnUse"
       gradientTransform="translate(832.3657,771.75654)" />
    <linearGradient
       xlink:href="#linearGradient4568"
       id="linearGradient4711"
       x1="-989.94952"
       y1="-214.36911"
       x2="-989.94952"
       y2="71.512238"
       gradientUnits="userSpaceOnUse" />
    <linearGradient
       xlink:href="#linearGradient4568"
       id="linearGradient4574"
       x1="-1290.975"
       y1="-543.67883"
       x2="-676.28125"
       y2="70.96875"
       gradientUnits="userSpaceOnUse" />
    <linearGradient
       id="linearGradient4568">
      <stop
         offset="0"
         id="stop4570"
         stop-color="#9394b8" />
      <stop
         id="stop4807"
         offset="1"
         stop-color="#ffffff" />
    </linearGradient>
    <linearGradient
       id="linearGradient4763">
      <stop
         offset="0"
         id="stop4765"
         stop-color="#ffffff" />
      <stop
         offset="1"
         id="stop4767"
         stop-opacity="0"
         stop-color="#ffffff" />
    </linearGradient>
    <linearGradient
       id="linearGradient4771">
      <stop
         id="stop4773"
         offset="0"
         stop-color="#ffffff" />
      <stop
         id="stop4775"
         offset="1"
         stop-opacity="0"
         stop-color="#ffffff" />
    </linearGradient>
    <linearGradient
       id="linearGradient4777">
      <stop
         offset="0"
         id="stop4779"
         stop-color="#7f7f7f" />
      <stop
         id="stop4809"
         offset="1"
         stop-color="#ffffff" />
    </linearGradient>
    <linearGradient
       id="linearGradient3510">
      <stop
         offset="0"
         id="stop3512"
         stop-color="#9394b8" />
      <stop
         offset="1"
         id="stop3514"
         stop-opacity="0"
         stop-color="#9394b8" />
    </linearGradient>
    <inkscape:perspective
       id="perspective2629"
       inkscape:persp3d-origin="372.04724 : 350.78739 : 1"
       inkscape:vp_z="744.09448 : 526.18109 : 1"
       inkscape:vp_y="0 : 1000 : 0"
       inkscape:vp_x="0 : 526.18109 : 1"
       sodipodi:type="inkscape:persp3d" />
  </defs>
  <sodipodi:namedview
     id="base"
     pagecolor="#ffffff"
     bordercolor="#666666"
     borderopacity="1.0"
     inkscape:pageopacity="0.0"
     inkscape:pageshadow="2"
     inkscape:zoom="0.35"
     inkscape:cx="-15.000001"
     inkscape:cy="2344.4286"
     inkscape:document-units="px"
     inkscape:current-layer="layer1"
     showgrid="false"
     inkscape:snap-to-guides="false"
     inkscape:window-width="1024"
     inkscape:window-height="553"
     inkscape:window-x="-3"
     inkscape:window-y="-3"
     inkscape:window-maximized="1" />
  <metadata
     id="metadata7">
    <rdf:RDF>
      <cc:Work
         rdf:about="">
        <dc:format>image/svg+xml</dc:format>
        <dc:type
           rdf:resource="http://purl.org/dc/dcmitype/StillImage" />
        <dc:title></dc:title>
      </cc:Work>
    </rdf:RDF>
  </metadata>
  <g
     inkscape:label="Layer 1"
     inkscape:groupmode="layer"
     id="layer1">
    <flowRoot
       xml:space="preserve"
       id="flowRoot3306"
       style="font-size:72px;font-style:normal;font-variant:normal;font-weight:normal;font-stretch:normal;text-align:start;line-height:125%;letter-spacing:0px;word-spacing:0px;writing-mode:lr-tb;text-anchor:start;fill:#000000;fill-opacity:1;stroke:none;font-family:Courier New;-inkscape-font-specification:Courier New"><flowRegion
         id="flowRegion3308"><rect
           id="rect3310"
           width="485.71429"
           height="74.285713"
           x="285.71429"
           y="-1093.3521"
           style="font-size:72px;font-style:normal;font-variant:normal;font-weight:normal;font-stretch:normal;text-align:start;line-height:125%;writing-mode:lr-tb;text-anchor:start;font-family:Courier New;-inkscape-font-specification:Courier New" /></flowRegion><flowPara
         id="flowPara3312"
         style="font-size:72px;font-style:normal;font-variant:normal;font-weight:normal;font-stretch:normal;text-align:start;line-height:125%;writing-mode:lr-tb;text-anchor:start;font-family:Courier New;-inkscape-font-specification:Courier New">opendatahacklabop</flowPara></flowRoot>    <flowRoot
       xml:space="preserve"
       id="flowRoot3343"
       style="fill:black;stroke:none;stroke-opacity:1;stroke-width:1px;stroke-linejoin:miter;stroke-linecap:butt;fill-opacity:1;font-family:Monospace;font-style:normal;font-weight:normal;font-size:40px;line-height:125%;letter-spacing:0px;word-spacing:0px;-inkscape-font-specification:Monospace;font-stretch:normal;font-variant:normal;text-anchor:start;text-align:start;writing-mode:lr"><flowRegion
         id="flowRegion3345"><rect
           id="rect3347"
           width="974.28571"
           height="397.14285"
           x="-100"
           y="-1219.0664" /></flowRegion><flowPara
         id="flowPara3349" /></flowRoot>    <flowRoot
       xml:space="preserve"
       id="flowRoot3351"
       style="fill:black;stroke:none;stroke-opacity:1;stroke-width:1px;stroke-linejoin:miter;stroke-linecap:butt;fill-opacity:1;font-family:Monospace;font-style:normal;font-weight:normal;font-size:40px;line-height:125%;letter-spacing:0px;word-spacing:0px;-inkscape-font-specification:Monospace;font-stretch:normal;font-variant:normal;text-anchor:start;text-align:start;writing-mode:lr"><flowRegion
         id="flowRegion3353"><rect
           id="rect3355"
           width="1065.7142"
           height="460"
           x="-122.85714"
           y="-1216.2092" /></flowRegion><flowPara
         id="flowPara3357" /></flowRoot>    <g
       transform="matrix(2.1110888,0,0,2.1110888,-954.12692,-1421.7636)"
       id="g3"
       inkscape:export-filename="/home/cristiano/public_html/opendatahacklab.github.io/imgs/logo_cog4_ter.png"
       inkscape:export-xdpi="90"
       inkscape:export-ydpi="90">
      <polygon
         id="polygon5"
         points="5.226,62.299 9.007,62.299 9.007,47.49 2.804,47.49 2.804,50.671 5.226,50.671 " />
      <polygon
         id="polygon7"
         points="27.707,47.49 27.707,50.671 30.128,50.671 30.128,62.299 33.91,62.299 33.91,47.49 " />
      <polygon
         id="polygon9"
         points="16.171,65.123 16.171,68.307 18.592,68.307 18.592,79.933 22.374,79.933 22.374,65.123 " />
      <polygon
         id="polygon11"
         points="16.171,82.37 16.171,85.554 18.592,85.554 18.592,97.18 22.374,97.18 22.374,82.37 " />
      <polygon
         id="polygon13"
         points="27.707,65.123 27.707,68.307 30.128,68.307 30.128,79.933 33.91,79.933 33.91,65.123 " />
      <path
         inkscape:connector-curvature="0"
         id="path15"
         d="m 21.594,47.688 c -0.701,-0.3 -1.5,-0.48 -2.262,-0.48 -0.76,0 -1.52,0.161 -2.241,0.442 -2.241,0.899 -3.342,2.799 -3.342,5.182 v 4.121 c 0,2.363 1.121,4.244 3.322,5.164 0.72,0.302 1.48,0.46 2.261,0.46 0.841,0 1.681,-0.182 2.441,-0.539 2.082,-0.96 3.022,-2.863 3.022,-5.085 v -4.121 c 0,-2.321 -1.04,-4.202 -3.201,-5.144 z m -0.581,9.368 c 0,1.159 -0.38,2.198 -1.741,2.198 -1.301,0 -1.741,-1.06 -1.741,-2.198 v -4.323 c 0,-1.122 0.44,-2.202 1.741,-2.202 1.361,0 1.741,1.04 1.741,2.202 v 4.323 z" />
      <polygon
         id="polygon17"
         points="89.854,65.123 89.854,68.307 92.277,68.307 92.277,79.933 96.059,79.933 96.059,65.123 " />
      <polygon
         id="polygon19"
         points="89.854,82.37 89.854,85.554 92.277,85.554 92.277,97.18 96.059,97.18 96.059,82.37 " />
      <path
         inkscape:connector-curvature="0"
         id="path21"
         d="m 95.278,47.688 c -0.7,-0.3 -1.501,-0.48 -2.261,-0.48 -0.76,0 -1.521,0.161 -2.242,0.442 -2.241,0.899 -3.341,2.799 -3.341,5.182 v 4.121 c 0,2.363 1.121,4.244 3.322,5.164 0.72,0.302 1.479,0.46 2.261,0.46 0.84,0 1.68,-0.182 2.441,-0.539 2.082,-0.96 3.021,-2.863 3.021,-5.085 v -4.121 c 0,-2.321 -1.041,-4.202 -3.201,-5.144 z m -0.581,9.368 c 0,1.159 -0.38,2.198 -1.741,2.198 -1.301,0 -1.739,-1.06 -1.739,-2.198 v -4.323 c 0,-1.122 0.438,-2.202 1.739,-2.202 1.361,0 1.741,1.04 1.741,2.202 v 4.323 z" />
      <polygon
         id="polygon23"
         points="69.48,79.933 73.262,79.933 73.262,65.123 67.06,65.123 67.06,68.307 69.48,68.307 " />
      <polygon
         id="polygon25"
         points="78.595,65.123 78.595,68.307 81.016,68.307 81.016,79.933 84.799,79.933 84.799,65.123 " />
      <path
         inkscape:connector-curvature="0"
         id="path27"
         d="m 72.482,82.571 c -0.701,-0.298 -1.5,-0.479 -2.261,-0.479 -0.762,0 -1.522,0.159 -2.241,0.44 -2.241,0.9 -3.344,2.801 -3.344,5.181 v 4.124 c 0,2.36 1.122,4.244 3.323,5.164 0.719,0.299 1.48,0.46 2.262,0.46 0.841,0 1.68,-0.182 2.439,-0.542 2.082,-0.96 3.022,-2.86 3.022,-5.082 v -4.124 c 0.002,-2.32 -1.038,-4.198 -3.2,-5.142 z m -0.581,9.366 c 0,1.162 -0.379,2.201 -1.741,2.201 -1.3,0 -1.739,-1.06 -1.739,-2.201 v -4.32 c 0,-1.122 0.439,-2.204 1.739,-2.204 1.362,0 1.741,1.043 1.741,2.204 v 4.32 z" />
      <path
         inkscape:connector-curvature="0"
         id="path29"
         d="M 8.228,65.324 C 7.527,65.023 6.727,64.845 5.965,64.845 c -0.76,0 -1.52,0.158 -2.239,0.439 -2.242,0.9 -3.343,2.801 -3.343,5.185 v 4.121 c 0,2.36 1.121,4.241 3.322,5.164 0.721,0.298 1.481,0.457 2.26,0.457 0.842,0 1.682,-0.179 2.441,-0.539 2.082,-0.961 3.022,-2.86 3.022,-5.082 v -4.121 c 10e-4,-2.324 -1.04,-4.204 -3.2,-5.145 z m -0.582,9.365 c 0,1.162 -0.38,2.201 -1.741,2.201 -1.3,0 -1.74,-1.062 -1.74,-2.201 v -4.323 c 0,-1.119 0.44,-2.198 1.74,-2.198 1.361,0 1.741,1.039 1.741,2.198 v 4.323 z" />
      <polygon
         id="polygon31"
         points="42.637,62.299 46.418,62.299 46.418,47.49 40.215,47.49 40.215,50.671 42.637,50.671 " />
      <polygon
         id="polygon33"
         points="53.582,65.123 53.582,68.307 56.004,68.307 56.004,79.933 59.785,79.933 59.785,65.123 " />
      <polygon
         id="polygon35"
         points="53.582,82.37 53.582,85.554 56.004,85.554 56.004,97.18 59.785,97.18 59.785,82.37 " />
      <path
         inkscape:connector-curvature="0"
         id="path37"
         d="m 45.639,65.324 c -0.702,-0.301 -1.501,-0.479 -2.263,-0.479 -0.76,0 -1.52,0.158 -2.24,0.439 -2.242,0.9 -3.342,2.801 -3.342,5.185 v 4.121 c 0,2.36 1.121,4.241 3.322,5.164 0.721,0.298 1.481,0.457 2.26,0.457 0.842,0 1.682,-0.179 2.441,-0.539 2.082,-0.961 3.022,-2.86 3.022,-5.082 v -4.121 c 0.001,-2.324 -1.04,-4.204 -3.2,-5.145 z m -0.581,9.365 c 0,1.162 -0.38,2.201 -1.741,2.201 -1.3,0 -1.74,-1.062 -1.74,-2.201 v -4.323 c 0,-1.119 0.44,-2.198 1.74,-2.198 1.361,0 1.741,1.039 1.741,2.198 v 4.323 z" />
      <path
         inkscape:connector-curvature="0"
         id="path39"
         d="m 81.751,44.757 1.139,0.001 11.635,0.021 0.425,-0.427 c 2.887,-3.004 4.668,-7.079 4.668,-11.563 0,-8.235 -5.993,-15.094 -13.842,-16.455 C 85.759,16.331 85.743,16.328 85.725,16.327 84.337,8.503 77.496,2.539 69.281,2.539 c -7.739,0 -14.262,5.292 -16.151,12.447 -2.866,-2.308 -6.503,-3.694 -10.459,-3.694 -8.319,0 -15.236,6.114 -16.499,14.085 -2.616,-1.703 -5.735,-2.697 -9.083,-2.697 -9.211,0 -16.706,7.495 -16.706,16.705 0,1.814 0.294,3.562 0.832,5.197 L 1.216,44.6 h 0.006 l 5.785,0.01 20.144,0.04 5.785,0.011 7.922,0.017 0.911,0.001 c 0.298,0.016 0.6,0.024 0.902,0.024 v -0.024 l 1.811,0.004 c 0.014,-0.003 0.029,-0.004 0.044,-0.006 l 6.111,0.016 c 0.559,1.433 1.316,2.764 2.228,3.975 -1.134,1.021 -1.704,2.466 -1.704,4.164 v 4.121 c 0,2.363 1.121,4.244 3.322,5.164 0.72,0.302 1.479,0.46 2.261,0.46 0.841,0 1.682,-0.182 2.441,-0.539 2.081,-0.96 3.021,-2.863 3.021,-5.085 v -2.088 c 0.79,0.195 1.602,0.33 2.431,0.408 v 1.68 c 0,2.363 1.122,4.244 3.323,5.164 0.719,0.302 1.48,0.46 2.262,0.46 0.841,0 1.68,-0.182 2.439,-0.539 2.082,-0.96 3.022,-2.863 3.022,-5.085 v -4.558 c 0.747,-0.517 1.445,-1.097 2.098,-1.725 h 3.234 v 11.628 h 3.783 V 47.49 h -4.441 c 0.541,-0.864 1.016,-1.773 1.394,-2.733 z M 30.471,39.438 28.45,39.435 5.729,39.39 c 0,-10e-4 0,-0.004 0,-0.007 0,-6.265 5.097,-11.362 11.361,-11.362 4.293,0 8.036,2.396 9.967,5.916 -0.009,-0.025 -0.018,-0.051 -0.026,-0.078 0.786,2.09 1.981,3.982 3.487,5.58 h -0.047 z m 27.954,17.618 c 0,1.159 -0.381,2.198 -1.741,2.198 -1.301,0 -1.741,-1.06 -1.741,-2.198 v -4.323 c 0,-0.536 0.104,-1.059 0.352,-1.463 0.956,0.828 2.005,1.55 3.131,2.146 v 3.64 z m 13.476,0 c 0,1.159 -0.379,2.198 -1.741,2.198 -1.3,0 -1.739,-1.06 -1.739,-2.198 v -1.858 c 1.206,-0.16 2.37,-0.451 3.48,-0.855 v 2.713 z m -5.693,-7.051 c -5.985,0 -10.896,-4.647 -11.328,-10.521 0,0 0,0 0,-0.003 -0.003,-0.021 -0.006,-0.04 -0.006,-0.061 L 49.52,39.409 c 10e-4,0.02 0.003,0.042 0.005,0.064 L 42.084,39.456 C 36.091,39.144 31.31,34.06 31.31,27.992 c 0.001,-6.259 5.097,-11.354 11.363,-11.354 6.265,0 11.361,5.094 11.361,11.36 h 5.345 c 0,-0.312 -0.012,-0.621 -0.027,-0.927 -0.005,-0.088 -0.016,-0.178 -0.021,-0.264 -0.016,-0.223 -0.033,-0.446 -0.059,-0.667 -0.01,-0.083 -0.021,-0.163 -0.031,-0.244 -0.031,-0.243 -0.064,-0.483 -0.105,-0.721 -0.007,-0.042 -0.014,-0.083 -0.02,-0.124 -0.153,-0.833 -0.362,-1.647 -0.632,-2.436 l -0.559,-3.372 c 0,-6.265 5.095,-11.362 11.36,-11.362 5.282,0 9.73,3.623 11,8.514 0.015,-0.003 0.032,-0.005 0.05,-0.007 0.22,0.877 0.338,1.798 0.338,2.745 0,0.886 -0.105,1.751 -0.3,2.579 0.815,-0.185 1.668,-0.288 2.542,-0.288 0.997,0 1.966,0.13 2.887,0.374 4.871,1.281 8.473,5.721 8.473,10.987 0,2.534 -0.835,4.877 -2.244,6.77 L 77.519,39.537 c 0.004,0.011 0.012,0.022 0.015,0.033 -0.092,1.238 -0.378,2.34 -0.837,3.437 -1.714,4.103 -5.771,6.998 -10.489,6.998 z" />
    </g>
    <g
       id="cog"
       transform="matrix(5.2207792,0,0,4.961039,-844.85714,-1275.3521)"
       style="fill:#000000"
       inkscape:export-xdpi="90"
       inkscape:export-ydpi="90">
      <path
         id="path3188"
         d="m 44,24.707 v -5.5 L 37.426,16.469 C 37.242,15.953 37.049,15.454 36.813,14.964 L 39.469,8.358 35.578,4.469 29.029,7.165 C 28.531,6.923 28.021,6.72 27.494,6.531 L 24.707,0 h -5.5 L 16.489,6.509 C 15.941,6.703 15.414,6.906 14.894,7.155 L 8.357,4.528 4.469,8.416 7.134,14.894 C 6.875,15.426 6.667,15.968 6.467,16.527 L 0,19.293 v 5.5 l 6.472,2.697 c 0.199,0.559 0.413,1.1 0.67,1.633 l -2.615,6.52 3.888,3.889 6.494,-2.676 c 0.522,0.248 1.054,0.447 1.601,0.635 L 19.293,44 h 5.5 l 2.721,-6.543 c 0.523,-0.193 1.039,-0.396 1.533,-0.633 l 6.596,2.643 3.889,-3.889 -2.709,-6.562 c 0.232,-0.494 0.418,-0.994 0.602,-1.504 L 44,24.707 z m -22.043,6.876 c -5.289,0 -9.582,-4.292 -9.582,-9.583 0,-5.291 4.293,-9.583 9.582,-9.583 5.292,0 9.583,4.293 9.583,9.583 0,5.29 -4.292,9.583 -9.583,9.583 z"
         inkscape:connector-curvature="0"
         style="fill:#000000" />
    </g>
  </g>
</svg>
